<svg width="36" height="36" viewBox="0 0 36 36" fill="none" xmlns="http://www.w3.org/2000/svg">
<rect width="36" height="36" fill="white"/>
<path d="M18.6486 3.73882L18.6623 3.75062L18.6768 3.76139C18.9 3.92719 21.6263 6.28097 24.2946 9.60194C26.9769 12.9403 29.5 17.1348 29.5 21C29.5 24.05 28.2884 26.9751 26.1317 29.1318C23.9751 31.2884 21.05 32.5 18 32.5C14.95 32.5 12.0249 31.2884 9.86827 29.1318C7.7116 26.9751 6.5 24.05 6.5 21C6.5 17.1348 9.0231 12.9403 11.7054 9.60194C14.3737 6.28097 17.1 3.92719 17.3232 3.76139L17.3377 3.75062L17.3514 3.73882L18 3.17999L18.6486 3.73882ZM19.7867 24.5727L19.34 24.7956L19.5623 25.2426L20.8973 27.9276L21.345 27.705L21.568 28.1525C22.8981 27.4897 24.0174 26.4695 24.8002 25.2063C25.583 23.943 25.9985 22.4867 26 21.0005L26.0005 20.5H25.5H22.5H22.0007L22 20.9993C21.999 21.7417 21.7914 22.4691 21.4005 23.1002C21.0096 23.7312 20.4508 24.2411 19.7867 24.5727Z" fill="#1421A4" stroke="white"/>
</svg>
