<svg width="117" height="117" viewBox="0 0 117 117" fill="none" xmlns="http://www.w3.org/2000/svg">
<path d="M104.203 113.344H27.4219C24.3982 113.344 21.9375 110.883 21.9375 107.859V104.203C21.9375 103.194 22.7565 102.375 23.7656 102.375C24.7747 102.375 25.5938 103.194 25.5938 104.203V107.859C25.5938 108.865 26.4128 109.688 27.4219 109.688H104.203C105.212 109.688 106.031 108.865 106.031 107.859V31.835L81.5088 7.3125H27.4219C26.4128 7.3125 25.5938 8.13516 25.5938 9.14062V27.4219C25.5938 28.431 24.7747 29.25 23.7656 29.25C22.7565 29.25 21.9375 28.431 21.9375 27.4219V9.14062C21.9375 6.11691 24.3982 3.65625 27.4219 3.65625H82.2656C82.7519 3.65625 83.2163 3.85003 83.5599 4.19006L109.154 29.7838C109.494 30.1275 109.688 30.5918 109.688 31.0781V107.859C109.688 110.883 107.227 113.344 104.203 113.344Z" fill="white"/>
<path d="M23.7656 58.3867C22.7565 58.3867 21.9375 57.5677 21.9375 56.5585V42.0469C21.9375 41.0378 22.7565 40.2188 23.7656 40.2188C24.7747 40.2188 25.5938 41.0378 25.5938 42.0469V56.5585C25.5938 57.5677 24.7747 58.3867 23.7656 58.3867Z" fill="white"/>
<path d="M107.933 32.9062C107.907 32.9062 107.881 32.9026 107.859 32.9062H85.9219C82.8982 32.9062 80.4375 30.4456 80.4375 27.4219V5.48435C80.4375 4.74579 80.8836 4.0767 81.5673 3.79516C82.251 3.52095 83.0371 3.67085 83.5599 4.19004L108.883 29.5132C109.41 29.835 109.761 30.4163 109.761 31.0781C109.761 32.0872 108.942 32.9062 107.933 32.9062ZM84.0938 9.89745V27.4219C84.0938 28.4273 84.9128 29.25 85.9219 29.25H103.446L84.0938 9.89745Z" fill="white"/>
<path d="M27.4219 32.9062C18.3507 32.9062 10.9688 40.2882 10.9688 49.3594V65.8125H14.625V49.3594C14.625 42.3028 20.3653 36.5625 27.4219 36.5625C34.4784 36.5625 40.2188 42.3028 40.2188 49.3594V65.8125H43.875V49.3594C43.875 40.2882 36.493 32.9062 27.4219 32.9062Z" fill="white"/>
<path d="M34.7344 98.7188H20.1094C13.0528 98.7188 7.3125 92.9784 7.3125 85.9219V63.9844C7.3125 62.9753 8.1315 62.1562 9.14062 62.1562H27.4219C28.431 62.1562 29.25 62.9753 29.25 63.9844C29.25 64.9935 28.431 65.8125 27.4219 65.8125H10.9688V85.9219C10.9688 90.9638 15.0674 95.0625 20.1094 95.0625H34.7344C39.7763 95.0625 43.875 90.9638 43.875 85.9219V65.8125H34.7344C33.7253 65.8125 32.9062 64.9935 32.9062 63.9844C32.9062 62.9753 33.7253 62.1562 34.7344 62.1562H45.7031C46.7122 62.1562 47.5312 62.9753 47.5312 63.9844V85.9219C47.5312 92.9784 41.7909 98.7188 34.7344 98.7188Z" fill="white"/>
<path d="M27.4219 82.2656C29.4412 82.2656 31.0781 80.6287 31.0781 78.6094C31.0781 76.5901 29.4412 74.9531 27.4219 74.9531C25.4026 74.9531 23.7656 76.5901 23.7656 78.6094C23.7656 80.6287 25.4026 82.2656 27.4219 82.2656Z" fill="white"/>
<path d="M89.5781 104.203C83.5307 104.203 78.6094 99.2818 78.6094 93.2344C78.6094 87.1869 83.5307 82.2656 89.5781 82.2656C95.6256 82.2656 100.547 87.1869 100.547 93.2344C100.547 99.2818 95.6256 104.203 89.5781 104.203ZM89.5781 85.9219C85.5453 85.9219 82.2656 89.2015 82.2656 93.2344C82.2656 97.2672 85.5453 100.547 89.5781 100.547C93.611 100.547 96.8906 97.2672 96.8906 93.2344C96.8906 89.2015 93.611 85.9219 89.5781 85.9219Z" fill="white"/>
<path d="M27.4219 87.75C26.4128 87.75 25.5938 86.931 25.5938 85.9219V76.7812H29.25V85.9219C29.25 86.931 28.431 87.75 27.4219 87.75Z" fill="white"/>
<path d="M71.2969 95.0625H53.0156C52.0065 95.0625 51.1875 94.2435 51.1875 93.2344C51.1875 92.2253 52.0065 91.4062 53.0156 91.4062H71.2969C72.306 91.4062 73.125 92.2253 73.125 93.2344C73.125 94.2435 72.306 95.0625 71.2969 95.0625Z" fill="white"/>
<path d="M71.2969 87.75H53.0156C52.0065 87.75 51.1875 86.931 51.1875 85.9219C51.1875 84.9128 52.0065 84.0938 53.0156 84.0938H71.2969C72.306 84.0938 73.125 84.9128 73.125 85.9219C73.125 86.931 72.306 87.75 71.2969 87.75Z" fill="white"/>
<path d="M73.125 62.1562H53.0156C52.0065 62.1562 51.1875 61.3372 51.1875 60.3281C51.1875 59.319 52.0065 58.5 53.0156 58.5H73.125C74.1341 58.5 74.9531 59.319 74.9531 60.3281C74.9531 61.3372 74.1341 62.1562 73.125 62.1562Z" fill="white"/>
<path d="M89.5781 54.8438H53.0156C52.0065 54.8438 51.1875 54.0247 51.1875 53.0156C51.1875 52.0065 52.0065 51.1875 53.0156 51.1875H89.5781C90.5872 51.1875 91.4062 52.0065 91.4062 53.0156C91.4062 54.0247 90.5872 54.8438 89.5781 54.8438Z" fill="white"/>
<path d="M89.5781 47.5312H53.0156C52.0065 47.5312 51.1875 46.7122 51.1875 45.7031C51.1875 44.694 52.0065 43.875 53.0156 43.875H89.5781C90.5872 43.875 91.4062 44.694 91.4062 45.7031C91.4062 46.7122 90.5872 47.5312 89.5781 47.5312Z" fill="white"/>
<path d="M74.9531 25.5938H40.2188C39.2096 25.5938 38.3906 24.7747 38.3906 23.7656C38.3906 22.7565 39.2096 21.9375 40.2188 21.9375H74.9531C75.9622 21.9375 76.7812 22.7565 76.7812 23.7656C76.7812 24.7747 75.9622 25.5938 74.9531 25.5938Z" fill="white"/>
</svg>
